<?xml version="1.0" standalone="no"?>
<!DOCTYPE svg PUBLIC "-//W3C//DTD SVG 20010904//EN"
 "http://www.w3.org/TR/2001/REC-SVG-20010904/DTD/svg10.dtd">
<svg version="1.0" xmlns="http://www.w3.org/2000/svg"
 width="198.000000pt" height="69.000000pt" viewBox="0 0 198.000000 69.000000"
 preserveAspectRatio="xMidYMid meet">

<g transform="translate(0.000000,69.000000) scale(0.100000,-0.100000)"
fill="#fff" stroke="none">
<path d="M0 345 l0 -345 990 0 990 0 0 345 0 345 -990 0 -990 0 0 -345z m427
178 c43 -20 57 -39 57 -78 0 -42 -25 -70 -73 -86 -53 -17 -57 -26 -13 -33 28
-4 49 -16 71 -41 67 -77 18 -165 -101 -185 -68 -11 -139 4 -168 35 -56 59 2
135 68 89 29 -20 28 -39 -3 -66 -30 -26 -19 -38 36 -38 53 0 74 28 74 101 0
75 -21 100 -94 107 -64 6 -67 22 -3 22 26 0 52 4 58 8 32 21 44 90 23 136 -14
29 -42 38 -77 25 l-25 -10 22 -23 c18 -19 21 -28 12 -44 -14 -26 -36 -34 -65
-22 -31 12 -39 26 -32 55 16 65 141 90 233 48z m628 -3 c71 -36 108 -92 113
-173 6 -97 -37 -175 -122 -219 -36 -19 -62 -22 -203 -26 -110 -3 -163 -1 -163
6 0 6 15 12 33 14 l32 3 0 200 0 200 -32 3 c-18 2 -33 8 -33 13 0 7 56 10 163
7 149 -3 166 -5 212 -28z m647 -6 c64 -45 92 -103 92 -189 -1 -149 -90 -233
-239 -223 -78 5 -132 38 -172 105 -23 39 -27 59 -28 117 0 59 4 78 27 117 24
41 77 87 118 103 8 3 47 4 87 3 62 -2 78 -7 115 -33z"/>
<path d="M870 324 l0 -207 53 7 c36 5 60 15 77 32 23 23 25 32 29 146 4 151
-7 194 -54 214 -19 8 -50 14 -70 14 l-35 0 0 -206z"/>
<path d="M1519 511 c-23 -18 -24 -27 -28 -151 -1 -72 0 -147 4 -166 8 -46 37
-74 76 -74 73 0 89 37 89 211 0 123 -11 173 -40 189 -30 16 -76 12 -101 -9z"/>
</g>
</svg>
