<?xml version="1.0" standalone="no"?>
<!DOCTYPE svg PUBLIC "-//W3C//DTD SVG 20010904//EN"
 "http://www.w3.org/TR/2001/REC-SVG-20010904/DTD/svg10.dtd">
<svg version="1.0" xmlns="http://www.w3.org/2000/svg"
 width="300.000000pt" height="300.000000pt" viewBox="0 0 300.000000 300.000000"
 preserveAspectRatio="xMidYMid meet">

<g transform="translate(0.000000,300.000000) scale(0.100000,-0.100000)"
fill="#fff" stroke="none">
<path d="M1350 2989 c-345 -33 -653 -180 -906 -433 -225 -225 -364 -490 -421
-796 -26 -143 -23 -411 6 -550 127 -603 574 -1053 1174 -1182 150 -32 447 -31
597 1 600 131 1044 579 1171 1181 29 138 32 406 5 550 -52 288 -191 560 -395
772 -255 267 -580 424 -946 458 -122 11 -161 11 -285 -1z m460 -173 c0 -2 -22
-18 -50 -36 -27 -18 -50 -36 -50 -40 0 -5 16 -10 35 -12 l36 -3 -60 -40 c-33
-22 -61 -43 -61 -47 0 -4 28 -8 61 -10 l62 -3 -222 -140 c-122 -77 -219 -141
-214 -142 4 -2 113 1 241 5 127 4 231 4 230 0 -2 -4 -106 -84 -233 -179 -126
-95 -233 -177 -236 -182 -6 -9 0 -98 8 -106 2 -3 81 7 175 22 94 15 173 25
175 23 2 -2 -17 -17 -42 -32 -53 -34 -57 -46 -12 -37 26 5 30 3 20 -8 -20 -21
-15 -28 22 -31 34 -3 26 -10 -231 -201 -146 -109 -268 -196 -270 -194 -4 3
-33 703 -46 1101 l-3 89 330 103 c182 56 331 103 333 103 1 1 2 -1 2 -3z
m-896 -291 c4 -25 10 -45 13 -45 2 0 13 10 24 23 l19 22 6 -22 c8 -29 12 -29
44 2 l27 26 6 -203 c4 -112 9 -318 12 -458 3 -140 8 -277 11 -304 4 -39 2 -47
-9 -43 -7 3 -132 96 -276 207 -144 111 -264 200 -266 198 -2 -1 -45 -111 -95
-243 -51 -132 -96 -249 -101 -260 -10 -21 -3 673 7 757 5 42 12 53 54 88 l48
40 191 -135 c105 -74 193 -135 194 -135 2 0 19 121 37 269 19 148 37 268 41
265 4 -2 10 -24 13 -49z m1295 -62 l195 -48 145 -195 145 -195 33 -150 c18
-82 33 -158 33 -167 0 -17 -246 -342 -273 -361 -10 -7 -244 54 -252 66 -1 1
-70 88 -152 192 -149 189 -149 191 -225 365 -42 96 -78 180 -80 187 -4 15 213
352 227 353 6 0 97 -21 204 -47z m-270 -1095 c1 -4 -6 -5 -14 -2 -25 10 -17
-9 27 -71 l41 -58 -29 7 c-16 4 -40 10 -54 13 l-25 6 25 -28 c16 -18 19 -26 9
-23 -60 22 -338 108 -348 108 -35 0 2 -75 161 -328 l58 -94 -217 2 c-262 2
-240 4 -247 -16 -5 -14 157 -325 247 -473 l20 -34 -46 5 c-26 3 -47 4 -47 3 0
-2 9 -24 20 -50 l20 -46 -35 27 c-39 30 -42 27 -19 -19 24 -47 16 -38 -216
261 l-212 274 40 56 c21 32 135 197 252 367 117 171 224 325 237 342 l24 32
164 -127 c90 -70 164 -130 164 -134z m-1148 152 c30 -5 81 -22 113 -37 l59
-28 84 -174 c46 -96 82 -176 80 -177 -2 -2 -35 16 -74 41 -157 97 -252 136
-334 136 -142 1 -221 -117 -192 -287 28 -164 180 -353 336 -417 36 -16 37 -16
36 6 0 12 -12 65 -27 117 l-27 95 -85 5 -85 5 38 29 c44 34 47 46 10 47 -63 1
-66 12 -11 49 l51 35 -29 5 c-22 4 3 14 110 43 76 21 139 37 140 35 6 -7 157
-880 154 -884 -2 -2 -64 26 -137 61 -363 177 -550 375 -618 653 -23 95 -23
270 1 347 51 168 145 268 278 294 60 12 68 12 129 1z m1864 -517 c-6 -220 -9
-260 -23 -275 -10 -9 -111 -104 -225 -211 l-208 -195 -142 -35 -141 -36 -75
63 -76 62 -2 190 -3 189 190 247 189 246 158 1 c86 1 159 4 162 6 2 3 49 5
104 5 l99 0 -7 -257z"/>
<path d="M2245 2184 c-16 -25 -16 -29 -1 -60 13 -29 21 -34 51 -34 28 0 37 5
50 30 15 28 14 32 -7 60 -28 39 -69 41 -93 4z"/>
<path d="M2033 2054 c-21 -9 -15 -52 8 -64 28 -16 72 12 67 43 -2 17 -11 22
-33 24 -16 1 -36 0 -42 -3z"/>
<path d="M2559 1880 c-4 -8 -15 -37 -24 -65 -21 -61 -70 -140 -98 -160 -25
-18 -158 -21 -188 -5 -37 20 -18 -5 24 -32 27 -17 64 -30 99 -34 65 -8 96 7
161 74 l38 39 -3 99 c-2 54 -6 92 -9 84z"/>
<path d="M2235 1101 c-34 -5 -43 -12 -63 -49 l-24 -43 27 -34 c19 -26 33 -35
53 -34 58 2 75 13 90 57 12 38 12 45 -5 74 -21 36 -24 37 -78 29z"/>
<path d="M2418 909 c-11 -6 -18 -22 -18 -42 0 -25 7 -36 32 -50 30 -17 31 -17
54 4 23 22 33 73 17 82 -20 12 -70 16 -85 6z"/>
<path d="M1964 701 c-64 -39 -79 -93 -48 -171 16 -39 17 -40 65 -40 41 0 51
-4 65 -25 13 -19 25 -25 54 -25 35 0 174 50 194 70 9 9 -59 140 -73 140 -5 0
-28 -7 -51 -15 -56 -20 -73 -13 -110 41 -34 49 -50 53 -96 25z"/>
</g>
</svg>
